/* XPM */
static char *accb1612afd74333850908d77ca206740U09aJNBgxl4ddXT[] = {
/* columns rows colors chars-per-pixel */
"32 32 10 1 ",
"  c #C0D470",
". c #90625D",
"X c #D4C169",
"o c #EAE178",
"O c #C49A6C",
"+ c #DCB98A",
"@ c #F4F4A0",
"# c #B09643",
"$ c #BFA954",
"% c #AA7959",
/* pixels */
"                                ",
"                                ",
"                                ",
"                                ",
"                                ",
"                                ",
"                                ",
"                                ",
"                                ",
"         ..          ..         ",
"        .XX..........XX.        ",
"       .oooO++++++++Oooo.       ",
"       .ooOOOO++++OOOOoo.       ",
"       .ooOOOOOOOOOOOOoo.       ",
"       .ooOOOOOOOOOOOOoo.       ",
"       .@oooooooooooooo@.       ",
"       .#@@@@@@@@@@@@@@#.       ",
"       .$#.....oX.....#$.       ",
"       .$$%%%%%XX%%%%%$$.       ",
"       .X$%%%%%%%%%%%%$X.       ",
"        .XXXXXXXXXXXXXX.        ",
"         ..............         ",
"                                ",
"                                ",
"                                ",
"                                ",
"                                ",
"                                ",
"                                ",
"                                ",
"                                ",
"                                "
};
