/* XPM */
static char *_f603fd77e4648b0d9bdde8af7947a694zyDkgIGiciBmydh[] = {
/* columns rows colors chars-per-pixel */
"32 32 7 1 ",
"  c #C0D470",
". c #754C60",
"X c #C49A6C",
"o c #DCB98A",
"O c #90625D",
"+ c #AA7959",
"@ c #E8CFA6",
/* pixels */
"                                ",
"                                ",
"                                ",
"                                ",
"                                ",
"                                ",
"                                ",
"                                ",
"        ..            ..        ",
"       .XX.          .XX.       ",
"       .XX. ........ .XX.       ",
"       .XX..XXXXXXXX..XX.       ",
"       .oo.XOOOOOOOOX.oo.       ",
"       .++.OOOOOOOOOO.++.       ",
"       .++.OO+OOOO+OO.++.       ",
"       .OO.OO+OOOO+OO.OO.       ",
"       .++.OO+OOOO+OO.++.       ",
"       .++.OO+OOOO+OO.++.       ",
"       .++.OO+OOOO@@O.++.       ",
"       .OO.OO+OOOO+OO.OO.       ",
"       .++.OO+OOOO+OO.++.       ",
"       .++.OO+OOOO+OO.++.       ",
"       .++.OOOOOOOOOO.++.       ",
"        ................        ",
"                                ",
"                                ",
"                                ",
"                                ",
"                                ",
"                                ",
"                                ",
"                                "
};
