/* XPM */
static char *e71cec2d39c34a7a93d3b2c145d7efeaxnkK9I6yVDbfcYHY[] = {
/* columns rows colors chars-per-pixel */
"16 16 15 1 ",
"  c None",
". c gray9",
"X c #989898",
"o c #42ACAF",
"O c #44D3D0",
"+ c #73FFFB",
"@ c #373737",
"# c #BBBDC0",
"$ c #D7DADE",
"% c #989898",
"& c #717171",
"* c #42ACAF",
"= c #44D3D0",
"- c #73FFFB",
"; c #61A97D",
/* pixels */
"@@@@@@@@@@@@@@@@",
"@##############@",
"@##############@",
"@##############@",
"@##############@",
"@$$$$$$$$$$$$$$@",
"@%%%%%%%%%%%%%%@",
"@%%%%%%%%%%%%%%@",
"@@&&@@@@@@@@&&@@",
" @%%@*=--=*@%%@ ",
".@%%@=----=@%%@.",
".@%%@--==--@%%@.",
".@%%@--==--@%%@.",
".@%%@=----=@%%@.",
".@%%@*=--=*@%%@.",
". XX oO++Oo XX ."
};
